<?xml version="1.0" standalone="no"?>
<!DOCTYPE svg PUBLIC "-//W3C//DTD SVG 20010904//EN"
 "http://www.w3.org/TR/2001/REC-SVG-20010904/DTD/svg10.dtd">
<svg version="1.0" xmlns="http://www.w3.org/2000/svg"
 width="1600.000000pt" height="900.000000pt" viewBox="0 0 1600.000000 900.000000"
 preserveAspectRatio="xMidYMid meet">

<g transform="translate(0.000000,900.000000) scale(0.100000,-0.100000)"
fill="#000000" stroke="none">
<path d="M1980 6230 c-36 -5 -83 -14 -105 -20 -22 -6 -62 -15 -90 -20 -27 -5
-75 -14 -105 -19 -30 -6 -67 -20 -82 -31 -15 -11 -34 -20 -42 -20 -23 0 -127
-41 -176 -69 -8 -5 -34 -17 -57 -27 -24 -9 -43 -21 -43 -25 0 -5 -15 -16 -32
-25 -44 -22 -141 -86 -153 -100 -5 -7 -30 -24 -54 -39 -44 -27 -140 -120 -214
-206 -20 -24 -51 -57 -67 -74 -65 -65 -180 -244 -180 -280 0 -9 -4 -13 -10
-10 -5 3 -16 -9 -24 -27 -53 -123 -66 -157 -66 -170 0 -8 -4 -18 -9 -23 -19
-21 -60 -144 -76 -230 -10 -49 -23 -112 -31 -140 -22 -79 -28 -266 -14 -421
17 -192 53 -381 84 -439 9 -16 16 -36 16 -43 0 -6 12 -36 26 -65 14 -28 36
-79 49 -112 17 -45 28 -59 40 -57 12 2 16 -1 12 -11 -10 -26 44 -120 138 -243
40 -52 113 -124 125 -124 6 0 10 -9 10 -20 0 -22 81 -106 112 -116 10 -3 18
-9 18 -14 0 -8 85 -70 97 -70 5 0 55 -40 93 -74 8 -7 38 -25 65 -39 28 -14 58
-34 69 -45 10 -12 32 -24 49 -28 17 -3 38 -10 47 -14 17 -10 113 -47 219 -86
40 -15 93 -29 117 -32 24 -2 44 -9 44 -13 0 -5 5 -9 11 -9 28 0 -3 24 -61 49
-125 54 -165 72 -185 83 -19 11 -104 60 -146 84 -11 6 -41 28 -67 48 -26 20
-69 54 -97 75 -27 22 -84 73 -126 114 -42 41 -86 78 -97 81 -12 4 -22 15 -22
25 0 9 -22 46 -49 82 -27 36 -56 82 -64 102 -9 20 -23 37 -31 37 -9 0 -16 7
-16 15 0 20 -97 204 -121 231 -16 17 -19 30 -14 65 3 24 2 38 -1 30 -8 -18
-47 97 -69 204 -9 44 -21 83 -27 86 -6 4 -8 14 -5 23 4 9 2 37 -4 64 -15 70
-20 356 -8 447 6 44 19 108 30 141 11 34 23 92 26 130 3 38 10 77 15 88 7 13
7 16 -1 12 -18 -12 -13 -1 19 34 17 18 30 43 30 54 0 12 7 30 15 40 8 11 15
32 15 48 0 15 5 28 10 28 6 0 10 7 10 15 0 9 7 18 15 21 8 4 15 16 15 29 0 13
6 25 14 28 8 3 20 25 27 48 7 22 19 43 26 46 7 3 13 13 13 22 0 9 17 35 38 57
21 21 44 53 52 70 7 17 29 41 47 54 18 12 33 27 33 32 0 6 20 31 45 56 25 25
45 51 45 59 0 7 12 18 26 23 15 6 54 34 88 63 54 47 150 117 161 117 9 0 143
86 170 110 17 14 44 27 60 29 17 2 38 10 48 19 11 10 56 26 100 38 85 22 168
49 202 67 11 5 69 14 130 19 236 20 256 23 265 37 6 11 12 12 22 4 7 -7 72
-17 143 -22 72 -6 145 -13 163 -15 32 -5 44 7 18 17 -8 3 -74 15 -147 27 -74
11 -143 26 -153 32 -25 14 -347 20 -436 8z"/>
<path d="M2525 5969 c-8 -12 34 -27 120 -44 111 -22 239 -69 392 -145 439
-218 713 -558 814 -1010 32 -139 34 -417 6 -550 -23 -107 -67 -251 -97 -315
-52 -113 -70 -162 -63 -168 3 -4 28 3 57 13 96 37 170 24 220 -38 24 -31 36
-19 68 65 60 160 87 297 95 493 12 280 -37 522 -157 776 -42 89 -130 240 -149
254 -4 3 -18 21 -31 40 -169 246 -520 486 -845 576 -154 43 -417 76 -430 53z"/>
<path d="M1968 5509 c-10 -6 -14 -86 -18 -348 -4 -303 -7 -341 -22 -358 -17
-18 -34 -19 -357 -16 -255 2 -342 -1 -348 -9 -11 -19 -14 -523 -3 -552 l10
-26 333 0 c324 0 335 -1 361 -21 20 -16 26 -29 25 -52 -6 -90 -5 -92 69 -115
37 -11 89 -23 116 -27 27 -4 66 -18 87 -31 21 -13 49 -24 62 -24 30 0 130 -34
159 -54 13 -9 43 -16 69 -16 l47 0 6 83 c3 45 4 102 1 127 -3 32 1 56 16 87
l21 43 349 0 349 0 0 289 0 289 -35 6 c-19 4 -177 6 -351 5 -281 -1 -318 1
-333 15 -14 15 -16 55 -16 352 0 280 -2 336 -14 344 -8 4 -40 11 -70 14 -81 8
-498 4 -513 -5z m52 -1233 c0 -3 -4 -8 -10 -11 -5 -3 -10 -1 -10 4 0 6 5 11
10 11 6 0 10 -2 10 -4z"/>
<path d="M1150 5420 c-30 -35 -62 -73 -70 -85 -72 -108 -99 -154 -151 -260
-112 -231 -162 -447 -161 -700 0 -259 48 -468 161 -695 77 -155 188 -325 261
-401 8 -9 38 -42 65 -73 82 -94 242 -218 405 -314 79 -46 282 -125 405 -156
270 -71 544 -74 789 -12 219 56 384 129 572 252 235 155 419 377 447 538 9 55
8 67 -6 90 -22 33 -64 34 -132 3 -47 -22 -165 -99 -245 -158 -65 -49 -274
-159 -379 -200 -142 -54 -226 -72 -356 -72 -120 -1 -163 8 -261 55 -125 59
-245 203 -188 225 10 3 84 -10 168 -31 329 -81 527 -86 589 -14 24 28 21 70
-6 96 -22 21 -247 110 -382 152 -33 10 -107 34 -165 53 -58 19 -145 47 -195
62 -49 15 -96 31 -105 36 -15 8 -83 29 -207 64 -51 15 -88 17 -230 12 -155 -5
-174 -7 -250 -35 -89 -32 -162 -71 -261 -139 -51 -34 -68 -41 -83 -33 -24 13
-106 153 -153 260 -38 86 -62 167 -91 310 -21 99 -25 365 -7 445 6 28 18 88
27 135 35 180 118 390 222 563 53 88 39 103 -27 27z"/>
<path d="M6259 5306 c-117 -26 -192 -94 -224 -202 -47 -163 9 -345 124 -403
87 -44 240 -49 330 -10 55 24 67 24 98 -1 27 -21 68 -26 91 -11 10 6 13 47 14
168 0 88 -2 166 -6 172 -5 7 -57 11 -155 11 -131 0 -150 -2 -164 -18 -19 -21
-22 -64 -7 -93 8 -14 22 -19 53 -19 72 0 87 -30 34 -65 -67 -43 -175 -16 -203
51 -20 49 -18 179 3 215 17 28 84 69 114 69 39 0 91 -24 121 -55 31 -34 35
-35 108 -35 104 0 121 21 79 97 -29 52 -38 62 -79 88 -79 50 -214 66 -331 41z"/>
<path d="M4530 5286 c-12 -33 -13 -557 -1 -590 10 -25 14 -26 85 -26 100 0
106 8 106 151 0 83 3 108 14 112 9 4 39 -22 82 -71 37 -42 92 -103 123 -134
l55 -58 72 0 c53 0 77 4 88 16 14 13 16 55 16 304 0 249 -2 291 -16 304 -19
20 -144 22 -162 4 -8 -8 -12 -49 -12 -119 0 -59 -3 -114 -6 -123 -11 -27 -38
-18 -74 26 -84 101 -174 204 -188 216 -10 7 -47 12 -94 12 -74 0 -79 -1 -88
-24z"/>
<path d="M5481 5284 c-11 -15 -25 -40 -30 -58 -5 -17 -28 -80 -51 -141 -23
-60 -45 -124 -49 -140 -4 -17 -12 -39 -18 -50 -6 -11 -25 -62 -43 -114 -26
-76 -30 -95 -19 -102 8 -5 49 -9 91 -9 74 0 108 13 108 41 0 5 9 18 20 29 17
17 33 20 110 20 96 0 100 -2 143 -64 17 -25 23 -26 103 -26 69 0 86 3 91 17 9
22 -5 67 -92 298 -15 39 -31 86 -37 105 -5 19 -14 40 -18 45 -4 6 -13 26 -18
45 -22 71 -39 112 -53 121 -8 5 -60 9 -116 9 -98 0 -102 -1 -122 -26z m152
-252 c9 -26 18 -62 19 -81 3 -31 0 -36 -30 -44 -22 -7 -40 -6 -58 2 -29 13
-29 24 7 123 25 67 38 67 62 0z"/>
<path d="M7014 5302 c-17 -11 -41 -62 -73 -155 -16 -45 -52 -145 -81 -222 -86
-235 -86 -235 -70 -245 20 -13 157 -12 181 0 10 6 19 17 19 25 0 8 9 24 20 35
17 17 33 20 99 20 96 0 128 -11 137 -45 9 -36 32 -45 116 -45 90 0 103 7 95
50 -7 32 -66 198 -92 255 -7 17 -24 64 -38 105 -43 130 -79 210 -98 220 -21
12 -199 13 -215 2z m124 -235 c10 -11 17 -35 39 -124 4 -18 -1 -25 -22 -33
-36 -14 -58 -13 -80 4 -18 13 -18 15 0 77 25 87 40 104 63 76z"/>
<path d="M7524 5295 c-7 -17 -8 -15 41 -150 20 -55 49 -137 65 -182 63 -183
94 -259 113 -275 15 -15 38 -18 117 -18 117 0 120 2 160 122 16 46 52 148 80
228 96 268 93 259 80 275 -9 11 -33 15 -81 15 -103 0 -112 -6 -134 -87 -43
-163 -90 -293 -106 -293 -13 0 -35 49 -59 135 -38 137 -72 226 -91 235 -10 6
-54 10 -99 10 -63 0 -82 -3 -86 -15z"/>
<path d="M8473 5293 c-11 -10 -32 -54 -47 -98 -15 -44 -32 -89 -37 -100 -10
-22 -50 -131 -106 -291 -20 -56 -33 -108 -30 -117 5 -14 21 -17 84 -17 81 0
123 16 123 45 0 30 42 45 128 45 89 0 81 4 145 -70 14 -17 29 -20 95 -20 42 0
84 5 92 10 16 10 -2 67 -105 345 -21 55 -51 136 -67 180 -16 44 -36 86 -45 93
-11 8 -52 12 -114 12 -78 0 -101 -3 -116 -17z m146 -268 c12 -31 21 -69 21
-85 0 -25 -5 -30 -34 -35 -41 -8 -72 0 -80 21 -8 20 45 154 60 154 7 0 22 -25
33 -55z"/>
<path d="M9042 5298 c-14 -14 -17 -594 -4 -616 7 -9 65 -12 258 -10 l249 3 12
25 c8 17 9 43 5 75 l-7 50 -148 6 c-94 4 -152 11 -162 19 -12 10 -15 48 -15
224 0 152 -3 215 -12 224 -7 7 -42 12 -88 12 -46 0 -81 -5 -88 -12z"/>
<path d="M9673 5303 c-10 -4 -13 -76 -13 -313 0 -271 2 -309 16 -314 9 -3 120
-6 248 -6 274 0 270 -1 270 84 0 39 -5 60 -15 67 -14 8 -48 11 -210 13 -114 2
-109 -9 -109 237 0 248 4 239 -103 238 -40 0 -78 -3 -84 -6z"/>
<path d="M10306 5294 c-14 -13 -16 -55 -16 -304 0 -249 2 -291 16 -304 11 -12
36 -16 94 -16 68 0 81 3 90 19 6 12 10 129 10 310 0 336 9 311 -109 311 -50 0
-74 -4 -85 -16z"/>
<path d="M5545 4268 c-2 -7 -6 -42 -9 -77 -3 -35 -8 -66 -11 -69 -3 -3 -29 2
-58 11 -63 19 -98 13 -136 -22 -39 -37 -55 -98 -48 -193 6 -94 29 -132 88
-149 32 -10 49 -9 96 3 41 12 62 13 79 6 53 -24 54 -19 54 246 0 213 -2 245
-16 250 -24 9 -34 7 -39 -6z m-63 -179 c28 -15 48 -69 48 -131 0 -84 -15 -123
-54 -142 -47 -22 -59 -20 -95 13 -30 28 -31 31 -30 118 0 48 4 96 8 107 15 38
81 57 123 35z"/>
<path d="M5707 4273 c-12 -11 -7 -33 8 -39 20 -8 45 13 38 32 -5 14 -34 19
-46 7z"/>
<path d="M6635 4268 c-3 -7 -4 -121 -3 -253 l3 -240 25 0 25 0 0 250 0 250
-23 3 c-12 2 -24 -3 -27 -10z"/>
<path d="M11754 4265 c-4 -9 -2 -21 4 -27 16 -16 47 -5 47 17 0 26 -42 34 -51
10z"/>
<path d="M12520 4261 c-6 -12 -10 -111 -10 -251 0 -204 2 -231 16 -237 9 -3
24 -2 33 4 14 9 16 40 19 230 1 129 -2 232 -8 247 -11 31 -35 34 -50 7z"/>
<path d="M7148 4251 c-42 -9 -97 -48 -127 -89 -32 -45 -47 -148 -31 -220 17
-81 39 -115 97 -149 43 -25 58 -28 134 -28 76 0 90 3 127 27 55 37 79 73 62
93 -18 21 -25 19 -68 -19 -65 -59 -168 -67 -227 -18 -48 41 -60 73 -60 163 0
76 3 90 27 126 37 56 107 81 176 63 26 -7 61 -26 79 -43 33 -31 58 -31 69 -2
8 19 -28 60 -69 81 -33 18 -138 26 -189 15z"/>
<path d="M4304 4237 c-2 -7 -3 -114 -2 -237 3 -211 4 -225 22 -228 10 -2 23 2
27 10 5 7 8 77 7 156 -3 116 0 144 12 152 17 11 30 4 30 -17 0 -8 6 -29 14
-46 7 -18 32 -79 54 -137 60 -154 81 -158 131 -28 62 159 82 203 101 228 l20
25 0 -156 c0 -162 9 -199 43 -186 19 7 25 118 17 332 l-5 140 -36 3 c-21 2
-40 -2 -46 -10 -10 -13 -72 -170 -114 -291 -13 -37 -28 -66 -34 -64 -18 6 -53
85 -120 265 l-38 102 -39 0 c-22 0 -41 -5 -44 -13z"/>
<path d="M9487 4239 c-32 -19 -47 -71 -40 -141 l5 -64 -36 -24 c-49 -34 -70
-81 -62 -138 7 -54 36 -88 85 -102 51 -14 93 -12 147 6 43 15 52 15 96 0 34
-11 56 -13 73 -6 14 5 25 12 25 15 0 2 -18 14 -40 25 -23 12 -43 27 -46 35 -3
7 6 39 21 71 14 31 24 63 21 70 -11 27 -36 13 -59 -33 -13 -27 -30 -49 -39
-51 -19 -4 -92 94 -84 113 2 7 24 26 47 41 81 54 97 117 44 170 -20 20 -34 24
-82 24 -32 0 -66 -5 -76 -11z m117 -45 c28 -28 15 -79 -26 -100 -36 -19 -66
-10 -78 22 -25 64 57 125 104 78z m-64 -273 c22 -33 40 -66 40 -74 0 -20 -21
-36 -56 -43 -36 -7 -100 27 -110 58 -10 32 5 86 29 103 37 26 54 18 97 -44z"/>
<path d="M10075 4238 c-3 -7 -4 -115 -3 -238 l3 -225 25 0 c25 0 25 1 28 97 2
66 7 100 16 107 9 8 55 11 132 9 l119 -3 5 -105 5 -105 30 0 30 0 3 215 c3
235 0 260 -26 260 -33 0 -42 -22 -42 -100 0 -46 -5 -81 -12 -88 -17 -17 -234
-17 -245 1 -4 6 -10 50 -13 97 -5 79 -7 85 -28 88 -12 2 -24 -3 -27 -10z"/>
<path d="M12896 4234 c-3 -9 -6 -114 -6 -235 0 -194 2 -220 16 -226 35 -13 49
11 52 88 3 93 10 99 117 99 133 0 189 44 190 149 0 50 -4 64 -25 86 -45 49
-69 55 -208 55 -109 0 -131 -3 -136 -16z m250 -44 c38 -15 53 -39 54 -83 0
-76 -34 -97 -155 -97 -85 0 -85 0 -85 95 0 95 0 95 85 95 41 0 86 -5 101 -10z"/>
<path d="M14147 4243 c-11 -10 -8 -461 3 -468 17 -11 283 -6 294 5 24 24 -24
40 -119 40 -57 0 -95 4 -103 12 -8 8 -12 66 -12 196 0 107 -4 191 -10 203 -10
19 -40 26 -53 12z"/>
<path d="M8339 4180 c-6 -16 -15 -30 -20 -30 -4 0 -13 -9 -20 -21 -9 -17 -7
-25 9 -42 18 -19 21 -39 24 -153 2 -91 7 -136 17 -147 18 -23 77 -33 96 -17
14 11 11 17 -20 45 l-35 33 0 110 c0 106 1 111 25 130 30 24 32 43 5 60 -12 7
-25 24 -30 37 -13 34 -39 31 -51 -5z"/>
<path d="M11913 4163 c-30 -45 -30 -48 -14 -72 12 -19 16 -53 18 -148 2 -160
14 -182 98 -173 33 3 32 10 -5 40 -35 29 -35 29 -38 125 -5 116 1 142 33 157
33 15 31 29 -5 56 -16 13 -30 31 -30 42 0 34 -25 22 -57 -27z"/>
<path d="M13722 4161 l-42 -50 22 -16 c21 -14 23 -25 28 -149 6 -156 16 -176
81 -176 38 0 65 20 39 28 -8 3 -24 15 -37 28 -21 21 -23 32 -23 131 l0 108 32
28 33 27 -28 21 c-16 12 -33 32 -38 45 -4 13 -12 24 -16 24 -5 0 -27 -22 -51
-49z"/>
<path d="M14915 4190 c-4 -11 -18 -32 -31 -47 l-24 -26 21 -23 c19 -20 22 -36
24 -151 2 -70 6 -135 10 -145 11 -27 61 -43 92 -29 l26 12 -37 33 -36 34 0
111 0 112 30 17 c37 21 38 39 4 54 -15 7 -27 23 -31 40 -7 33 -38 38 -48 8z"/>
<path d="M5965 4143 c-32 -8 -84 -51 -102 -86 -25 -48 -24 -172 2 -216 31 -52
65 -72 131 -77 68 -6 117 17 134 62 20 52 -15 59 -67 14 -52 -46 -108 -38
-138 20 -23 44 -20 157 5 198 17 28 25 32 64 32 33 0 52 -7 74 -25 38 -32 62
-33 62 -2 0 52 -94 97 -165 80z"/>
<path d="M6307 4136 c-51 -19 -69 -35 -65 -60 4 -28 40 -32 63 -6 27 30 108
29 129 -2 35 -50 15 -75 -64 -79 -66 -3 -134 -33 -149 -66 -19 -41 -13 -99 12
-128 35 -41 93 -44 162 -10 l55 28 23 -21 c20 -19 87 -32 87 -17 0 3 -9 22
-20 42 -15 29 -20 58 -21 123 -1 110 -16 159 -55 182 -43 25 -111 31 -157 14z
m127 -202 c33 -32 6 -92 -52 -118 -37 -17 -42 -17 -71 -2 -17 9 -33 27 -37 41
-8 33 18 73 54 81 15 3 32 7 37 9 25 8 55 4 69 -11z"/>
<path d="M7630 4140 c-53 -9 -77 -26 -105 -74 -20 -34 -25 -56 -25 -108 0 -77
16 -122 60 -163 29 -27 36 -29 105 -29 85 1 125 20 125 59 0 32 -9 31 -68 -2
-54 -30 -83 -28 -125 11 -33 31 -37 80 -8 96 11 5 64 10 119 10 113 0 129 8
118 62 -22 105 -93 155 -196 138z m97 -62 c8 -7 19 -23 24 -37 16 -40 -9 -56
-86 -54 -78 3 -85 6 -85 42 0 27 19 52 50 64 22 9 79 0 97 -15z"/>
<path d="M10687 4140 c-58 -11 -104 -62 -118 -132 -15 -75 -5 -137 31 -187 34
-47 89 -67 158 -57 98 13 137 70 137 196 -1 61 -5 83 -24 113 -36 58 -101 82
-184 67z m93 -53 c73 -36 81 -199 13 -260 -11 -10 -37 -20 -56 -24 -32 -5 -41
-1 -72 30 -34 34 -35 37 -35 114 1 45 6 88 14 102 26 46 86 63 136 38z"/>
<path d="M11484 4133 c-24 -8 -57 -11 -86 -7 -45 5 -46 5 -51 -23 -3 -15 -5
-123 -5 -239 -1 -165 2 -216 13 -230 11 -15 18 -17 32 -8 14 8 19 26 21 75 2
35 7 68 11 72 5 5 35 3 67 -4 105 -21 155 18 172 133 14 93 -15 206 -57 224
-44 18 -81 20 -117 7z m78 -55 c21 -17 38 -72 38 -122 0 -126 -78 -194 -153
-133 -22 18 -28 33 -33 83 -13 122 18 184 90 184 23 0 49 -6 58 -12z"/>
<path d="M12197 4136 c-48 -18 -67 -34 -67 -58 0 -28 26 -32 59 -9 59 42 151
20 151 -35 0 -31 -20 -44 -69 -44 -104 0 -161 -36 -169 -105 -7 -62 12 -101
55 -116 45 -14 116 -4 138 21 23 25 36 25 68 0 24 -19 77 -27 90 -13 4 4 -4
18 -17 32 -22 24 -24 35 -28 143 -3 108 -5 118 -28 144 -48 51 -111 65 -183
40z m131 -198 c41 -41 -32 -138 -104 -138 -43 0 -73 92 -40 119 34 28 123 40
144 19z"/>
<path d="M4961 4122 c-47 -23 -69 -57 -81 -120 -19 -101 15 -188 86 -222 42
-21 51 -22 112 -12 47 8 72 18 85 33 36 45 5 58 -55 24 -52 -30 -73 -31 -115
-5 -23 14 -34 29 -39 56 -10 55 8 64 133 64 101 0 104 1 115 25 13 28 1 76
-31 124 -32 50 -143 68 -210 33z m123 -32 c14 -5 32 -23 41 -40 26 -50 8 -61
-84 -58 l-76 3 -3 31 c-5 55 58 89 122 64z"/>
<path d="M5711 4126 c-8 -9 -11 -66 -9 -182 l3 -169 25 0 25 0 3 169 c2 161
-3 196 -28 196 -4 0 -13 -6 -19 -14z"/>
<path d="M7933 4133 c-10 -4 -13 -49 -13 -179 0 -147 2 -176 15 -180 35 -14
45 14 45 128 0 74 5 120 15 145 8 19 15 37 15 38 0 10 -67 51 -77 48z"/>
<path d="M8038 4124 c-39 -20 -36 -38 5 -31 97 16 117 -17 117 -192 0 -111 1
-120 20 -126 11 -3 24 -3 30 0 6 4 10 61 10 141 0 189 -18 224 -112 224 -24
-1 -55 -8 -70 -16z"/>
<path d="M8627 4129 c-10 -6 -35 -8 -57 -4 -35 6 -40 4 -45 -17 -3 -13 -4 -90
-3 -172 3 -131 5 -150 21 -160 33 -20 45 14 46 140 1 130 12 159 65 172 40 10
51 52 14 52 -13 0 -31 -5 -41 -11z"/>
<path d="M8833 4129 c-12 -7 -35 -30 -50 -52 -35 -51 -44 -155 -19 -220 25
-64 73 -92 156 -91 72 1 103 13 121 45 19 37 -4 43 -57 15 -27 -14 -55 -26
-62 -26 -23 0 -89 39 -96 55 -10 27 -7 63 7 72 6 4 61 10 121 13 134 6 140 12
111 97 -27 76 -56 97 -143 100 -37 2 -77 -2 -89 -8z m155 -64 c45 -52 19 -79
-74 -79 -84 1 -104 16 -79 63 9 18 26 36 38 41 36 15 90 3 115 -25z"/>
<path d="M11024 4129 c-25 -13 -54 -60 -54 -89 0 -36 60 -86 125 -105 54 -16
105 -52 105 -73 0 -6 -8 -20 -18 -32 -26 -32 -99 -33 -141 -2 -51 37 -87 23
-57 -23 35 -53 201 -61 250 -12 22 21 30 83 16 117 -13 30 -62 59 -138 80 -57
15 -86 44 -72 70 5 10 15 22 22 26 20 13 96 6 120 -10 28 -20 54 -21 61 -2 7
17 -18 41 -56 55 -35 14 -135 13 -163 0z"/>
<path d="M13340 4130 c-13 -8 -9 -24 22 -112 72 -203 80 -223 90 -235 11 -14
57 -17 73 -5 10 6 75 166 91 222 4 14 15 41 25 60 23 42 24 54 3 70 -23 20
-47 -11 -80 -105 -68 -198 -78 -200 -132 -32 -30 92 -56 147 -71 147 -3 0 -13
-5 -21 -10z"/>
<path d="M14781 4127 c-13 -16 -71 -155 -71 -170 0 -21 -42 -97 -54 -97 -6 0
-26 46 -44 103 -48 146 -58 167 -81 167 -11 0 -23 -4 -26 -10 -8 -13 90 -294
118 -337 5 -7 23 -13 41 -13 38 0 37 -3 103 175 24 66 51 130 59 143 12 18 13
26 3 38 -14 18 -33 18 -48 1z"/>
<path d="M11755 4118 c-3 -8 -4 -88 -3 -178 l3 -165 25 0 25 0 0 175 c0 174 0
175 -23 178 -12 2 -24 -3 -27 -10z"/>
</g>
</svg>
