<svg xmlns="http://www.w3.org/2000/svg" xmlns:xlink="http://www.w3.org/1999/xlink" version="1.1" width="1000" height="1000" viewBox="0 0 1000 1000" xml:space="preserve">
<desc>Created with Fabric.js 3.5.0</desc>
<defs>
</defs>
<rect x="0" y="0" width="100%" height="100%" fill="#ffffff"/>
<g transform="matrix(0.8706 0 0 0.8631 493.8739 563.8997)" id="298080">
<g style="" vector-effect="non-scaling-stroke">
		<g transform="matrix(0.1333 0 0 -0.1333 -0.2515 -53.3002)">
<path style="stroke: none; stroke-width: 1; stroke-dasharray: none; stroke-linecap: butt; stroke-dashoffset: 0; stroke-linejoin: miter; stroke-miterlimit: 4; is-custom-font: none; font-file-url: none; fill: rgb(0,0,0); fill-rule: nonzero; opacity: 1;" transform=" translate(-10238.8914, -10638.9717)" d="M 10165 13754 c -22 -3 -99 -11 -172 -19 c -73 -8 -152 -15 -176 -15 c -24 0 -77 -9 -118 -20 c -41 -11 -92 -20 -114 -20 c -22 0 -60 -9 -84 -20 c -24 -11 -55 -20 -70 -20 c -14 -1 -44 -8 -66 -16 c -22 -9 -60 -20 -85 -26 c -25 -6 -54 -17 -65 -24 c -11 -8 -26 -14 -35 -14 c -9 0 -33 -9 -55 -20 c -21 -11 -54 -23 -72 -26 c -18 -3 -37 -12 -44 -20 c -6 -8 -16 -14 -21 -14 c -17 0 -289 -139 -363 -185 c -38 -24 -83 -51 -99 -60 c -71 -41 -284 -212 -430 -345 c -163 -149 -401 -447 -523 -655 c -61 -104 -113 -196 -113 -201 c 0 -3 -21 -49 -46 -102 c -71 -152 -73 -155 -80 -187 c -4 -16 -11 -35 -15 -41 c -11 -14 -47 -114 -61 -169 c -5 -22 -18 -69 -29 -105 c -11 -36 -19 -74 -20 -85 c 0 -11 -7 -38 -15 -60 c -8 -22 -19 -85 -25 -140 c -5 -55 -16 -122 -24 -149 c -22 -73 -22 -661 0 -732 c 8 -27 18 -87 21 -134 c 4 -47 13 -100 20 -119 c 8 -18 19 -63 25 -99 c 5 -37 14 -71 19 -77 c 5 -6 13 -39 19 -74 c 6 -35 15 -69 21 -76 c 5 -7 17 -32 24 -56 c 26 -79 54 -156 63 -175 c 6 -10 19 -39 30 -64 c 70 -153 127 -269 156 -313 c 19 -29 56 -88 83 -132 c 59 -97 190 -272 254 -340 c 26 -27 75 -81 110 -120 c 66 -74 256 -248 334 -305 c 26 -19 77 -58 114 -86 c 37 -28 82 -60 101 -70 c 18 -10 41 -24 50 -29 c 195 -123 492 -265 606 -291 c 17 -4 41 -12 55 -20 c 59 -30 283 -87 440 -113 c 36 -6 90 -15 120 -21 c 30 -5 141 -14 246 -21 c 185 -11 214 -10 562 16 c 174 12 589 118 738 186 c 22 11 45 19 52 19 c 21 0 317 142 369 177 c 18 12 71 44 116 70 c 183 104 484 353 633 523 c 49 56 101 116 117 133 c 16 18 48 58 71 91 c 22 32 52 74 66 94 c 37 52 97 142 120 182 c 11 19 31 53 45 75 c 36 59 159 311 184 377 c 12 32 31 84 43 115 c 11 32 29 79 39 105 c 11 26 19 59 19 75 c 0 15 7 41 15 57 c 8 16 18 47 21 70 c 3 22 14 67 25 99 c 10 31 19 83 19 115 c 0 32 9 94 21 137 c 19 73 20 102 17 414 c -2 253 -6 342 -16 359 c -7 12 -15 62 -18 110 c -3 48 -14 114 -24 147 c -10 33 -21 79 -24 101 c -3 23 -13 54 -21 70 c -8 16 -15 42 -15 57 c 0 16 -8 49 -19 75 c -10 26 -28 73 -39 105 c -12 31 -31 83 -43 115 c -29 75 -162 344 -201 407 c -142 228 -251 373 -412 547 c -70 76 -133 141 -140 145 c -7 4 -49 40 -92 80 c -78 71 -281 230 -333 259 c -14 8 -39 23 -56 34 c -16 11 -43 27 -60 36 c -16 9 -37 22 -45 29 c -26 22 -360 185 -379 185 c -6 0 -28 9 -48 20 c -21 11 -47 20 -58 20 c -11 0 -29 6 -40 14 c -11 7 -40 18 -65 24 c -25 6 -65 17 -90 26 c -55 18 -119 34 -185 47 c -27 6 -88 19 -135 30 c -47 11 -103 19 -125 19 c -22 0 -96 6 -165 14 c -151 18 -281 25 -335 20 z m 505 -138 c 30 -9 75 -16 100 -16 c 26 0 76 -8 111 -19 c 35 -10 87 -23 114 -29 c 28 -5 64 -14 80 -20 c 101 -34 134 -44 170 -53 c 22 -6 50 -17 62 -25 c 12 -8 29 -14 37 -14 c 14 0 109 -40 146 -61 c 8 -5 26 -14 40 -19 c 14 -6 32 -15 40 -20 c 8 -6 26 -15 40 -20 c 14 -6 32 -15 40 -20 c 8 -6 31 -18 50 -26 c 19 -9 58 -30 85 -48 c 28 -17 57 -36 66 -41 c 54 -33 140 -94 231 -161 c 113 -86 437 -403 508 -499 c 25 -33 50 -65 55 -72 c 31 -36 163 -231 179 -263 c 4 -8 20 -37 36 -65 c 41 -71 170 -332 170 -344 c 0 -6 9 -28 20 -48 c 11 -21 20 -45 20 -53 c 1 -8 9 -33 20 -55 c 11 -22 20 -49 20 -60 c 0 -11 9 -38 20 -60 c 11 -22 19 -52 20 -68 c 0 -15 9 -53 20 -84 c 11 -32 20 -71 20 -88 c 0 -17 7 -55 15 -85 c 19 -70 47 -379 48 -535 c 1 -168 -22 -447 -44 -531 c -11 -38 -19 -85 -19 -102 c 0 -32 -28 -147 -56 -232 c -9 -25 -20 -64 -25 -88 c -5 -24 -15 -53 -24 -65 c -8 -12 -15 -29 -15 -39 c 0 -10 -9 -39 -21 -65 c -12 -27 -29 -66 -39 -88 c -26 -60 -119 -243 -151 -300 c -16 -27 -32 -56 -36 -64 c -15 -33 -134 -204 -210 -302 c -150 -194 -425 -453 -631 -596 c -26 -18 -54 -39 -62 -47 c -14 -13 -92 -60 -160 -97 c -16 -9 -36 -21 -43 -27 c -18 -16 -274 -142 -287 -142 c -5 0 -27 -9 -47 -20 c -21 -11 -44 -20 -51 -20 c -7 0 -30 -9 -52 -20 c -22 -11 -47 -20 -57 -20 c -10 -1 -36 -9 -58 -20 c -22 -11 -48 -19 -57 -20 c -10 0 -44 -9 -75 -19 c -32 -11 -80 -23 -108 -27 c -27 -3 -57 -10 -66 -15 c -8 -4 -56 -13 -105 -19 c -49 -6 -127 -19 -174 -27 c -120 -23 -560 -23 -680 0 c -47 8 -110 18 -140 22 c -123 14 -453 100 -558 146 c -23 11 -47 19 -53 19 c -6 0 -36 12 -67 26 c -31 14 -77 35 -102 46 c -49 22 -123 59 -185 95 c -22 12 -49 27 -60 32 c -17 7 -119 73 -175 111 c -201 139 -303 223 -460 380 c -186 186 -312 347 -443 565 c -27 44 -52 87 -57 95 c -13 20 -108 215 -130 265 c -39 86 -77 191 -92 250 c -6 22 -19 61 -29 87 c -11 26 -19 56 -19 68 c 0 11 -9 46 -20 77 c -11 32 -20 71 -20 89 c 0 17 -7 53 -15 80 c -21 67 -49 369 -49 539 c -1 180 21 437 45 541 c 10 45 19 92 19 105 c 0 12 9 54 21 93 c 11 39 30 103 41 141 c 11 39 29 93 39 120 c 11 28 19 55 19 61 c 0 10 10 35 65 159 c 63 141 198 390 247 455 c 25 32 97 131 123 166 c 102 141 399 441 550 555 c 93 70 135 98 304 207 c 36 23 126 71 200 108 c 75 36 152 75 172 85 c 20 10 45 19 56 19 c 10 0 27 6 38 14 c 11 7 36 17 55 21 c 19 4 54 16 77 26 c 23 11 50 19 60 19 c 10 0 44 9 76 20 c 31 11 67 20 80 20 c 12 0 48 9 80 20 c 31 11 78 20 104 20 c 26 0 74 7 107 15 c 34 8 72 16 86 19 c 14 2 183 3 375 1 c 289 -2 360 -5 405 -19 z" stroke-linecap="round"/>
</g>
		<g transform="matrix(0.1333 0 0 -0.1333 19.5281 -69.4053)">
<path style="stroke: none; stroke-width: 1; stroke-dasharray: none; stroke-linecap: butt; stroke-dashoffset: 0; stroke-linejoin: miter; stroke-miterlimit: 4; is-custom-font: none; font-file-url: none; fill: rgb(0,0,0); fill-rule: nonzero; opacity: 1;" transform=" translate(-10387.0007, -10760)" d="M 9680 12904 c -19 -8 -36 -17 -39 -20 c -10 -10 -23 -405 -27 -857 l -4 -458 l -23 -8 c -12 -4 -106 -11 -209 -14 c -103 -3 -196 -10 -207 -16 c -13 -7 -157 -11 -430 -11 c -244 0 -420 -4 -436 -10 c -14 -5 -30 -22 -36 -37 c -20 -53 -31 -329 -36 -869 l -4 -542 l 33 -31 l 33 -31 l 626 0 c 429 0 636 -3 658 -11 l 31 -11 l 0 -660 l 0 -659 l 32 -30 l 32 -29 l 496 1 c 292 0 518 5 550 11 c 30 5 132 13 225 17 c 141 6 216 17 227 33 c 1 2 5 244 10 538 c 4 294 10 590 14 658 c 6 119 6 123 31 133 c 13 5 201 9 426 10 c 225 0 426 5 457 11 c 30 5 129 13 220 17 c 91 4 173 11 182 15 c 10 5 21 24 25 44 c 5 21 8 336 8 702 c 0 715 1 701 -51 720 c -15 6 -309 10 -732 10 c -623 0 -732 -2 -917 -20 c -214 -20 -247 -26 -300 -54 c -16 -9 -37 -16 -46 -16 c -9 0 -22 -6 -28 -14 c -7 -8 -24 -17 -38 -21 c -15 -3 -38 -15 -51 -26 c -14 -10 -29 -19 -33 -19 c -12 0 -123 -78 -174 -121 c -125 -108 -229 -225 -306 -344 c -61 -96 -64 -101 -100 -175 c -17 -36 -39 -81 -49 -100 c -25 -49 -34 -116 -21 -149 c 15 -35 60 -62 92 -54 c 33 8 76 50 84 82 c 6 27 94 207 123 252 c 67 104 110 157 207 252 c 130 128 131 130 170 151 c 17 9 44 25 60 36 c 17 11 41 25 55 31 c 14 6 32 16 40 24 c 8 7 33 18 55 24 c 40 11 107 42 155 73 c 14 9 52 19 85 23 c 33 4 85 13 115 21 c 75 19 1427 21 1453 2 c 16 -12 18 -63 23 -574 c 7 -609 6 -628 -43 -640 c -36 -9 -280 3 -323 16 c -22 6 -199 10 -484 10 c -590 0 -556 15 -556 -245 c 0 -78 7 -188 15 -246 c 10 -73 15 -215 16 -479 c 3 -411 -1 -445 -48 -456 c -37 -10 -273 2 -306 15 c -19 7 -173 11 -452 11 c -409 0 -425 1 -435 19 c -6 13 -10 239 -10 663 c 0 714 4 674 -67 703 c -30 13 -130 15 -655 15 c -408 0 -626 4 -639 10 c -18 10 -19 26 -19 423 c 0 235 -5 466 -12 537 c -7 81 -8 143 -2 175 l 9 50 l 390 -1 c 215 -1 512 -5 662 -9 l 272 -8 l 30 31 l 31 30 l 0 524 c 0 462 -2 526 -16 546 c -13 18 -15 45 -12 136 c 5 174 -71 156 640 156 c 567 0 599 -1 616 -18 c 17 -17 19 -49 25 -444 c 6 -448 9 -471 53 -482 c 44 -11 72 9 79 56 c 4 24 5 251 3 506 l -3 463 l -25 19 c -13 10 -37 21 -53 24 c -16 3 -334 6 -706 6 c -578 -1 -681 -3 -711 -16 z" stroke-linecap="round"/>
</g>
</g>
</g>
</svg>